# xmcd
# 
# Track frame offsets:
#     150
#     12200
#     24672
#     35937
#     49407
#     61167
#     74037
#     86962
#     97297
#     110162
#     122907
#     133772
#     145550
#     156470
#     170040
#     181925
# 
# Disc length: 2602
# 
# Revision: 9
# Processed by: cddbd v1.5.2PL0 Copyright (c) Steve Scherf et al.
# Submitted via: fre:ac v1.0.27
# 
DISCID=fc0a2810
DTITLE=Robert Johnson - King Of The Delta Blues
DYEAR=1997
DGENRE=Blues
TTITLE0=Cross Road Blues
TTITLE1=Traveling Riverside Blues
TTITLE2=Walkin' Blues
TTITLE3=I Believe I'll Dust My Broom
TTITLE4=Hell Hound On My Trail
TTITLE5=Kind Hearted Woman Blues
TTITLE6=Ramblin' On My Mind
TTITLE7=Stop Breakin' Down Blues
TTITLE8=Come On In My Kitchen
TTITLE9=32-20 Blues
TTITLE10=From Four Until Late
TTITLE11=I'm A Steady Rollin' Man
TTITLE12=Love In Vain
TTITLE13=Terraplane Blues
TTITLE14=When You Got A Good Friend
TTITLE15=Sweet Home Chicago
EXTD=
EXTT0=
EXTT1=
EXTT2=
EXTT3=
EXTT4=
EXTT5=
EXTT6=
EXTT7=
EXTT8=
EXTT9=
EXTT10=
EXTT11=
EXTT12=
EXTT13=
EXTT14=
EXTT15=
PLAYORDER=
